<mxfile host="app.diagrams.net" modified="2023-09-24T08:54:17.413Z" agent="Mozilla/5.0 (Windows NT 10.0; Win64; x64) AppleWebKit/537.36 (KHTML, like Gecko) Chrome/117.0.0.0 Safari/537.36 Edg/117.0.2045.36" etag="dTqkKWHmOsbtowRB5VWX" version="21.7.5" type="device">
  <diagram name="Trang-1" id="PtPaxqL6lhcFlwoR-nM-">
    <mxGraphModel dx="872" dy="457" grid="1" gridSize="10" guides="1" tooltips="1" connect="1" arrows="1" fold="1" page="1" pageScale="1" pageWidth="827" pageHeight="1169" math="0" shadow="0">
      <root>
        <mxCell id="0" />
        <mxCell id="1" parent="0" />
        <mxCell id="67NaBdKSc4eSCxNxW8BE-1" value="khach hang" style="shape=umlActor;verticalLabelPosition=bottom;verticalAlign=top;html=1;outlineConnect=0;" vertex="1" parent="1">
          <mxGeometry x="560" y="170" width="30" height="60" as="geometry" />
        </mxCell>
        <mxCell id="67NaBdKSc4eSCxNxW8BE-2" value="nhan vien" style="shape=umlActor;verticalLabelPosition=bottom;verticalAlign=top;html=1;outlineConnect=0;" vertex="1" parent="1">
          <mxGeometry x="130" y="230" width="30" height="60" as="geometry" />
        </mxCell>
        <mxCell id="67NaBdKSc4eSCxNxW8BE-3" value="admin" style="shape=umlActor;verticalLabelPosition=bottom;verticalAlign=top;html=1;outlineConnect=0;" vertex="1" parent="1">
          <mxGeometry x="320" y="190" width="30" height="60" as="geometry" />
        </mxCell>
        <mxCell id="67NaBdKSc4eSCxNxW8BE-17" value="NhanVien" style="shape=table;startSize=30;container=1;collapsible=1;childLayout=tableLayout;fixedRows=1;rowLines=0;fontStyle=1;align=center;resizeLast=1;html=1;" vertex="1" parent="1">
          <mxGeometry x="10" y="350" width="180" height="270" as="geometry" />
        </mxCell>
        <mxCell id="67NaBdKSc4eSCxNxW8BE-18" value="" style="shape=tableRow;horizontal=0;startSize=0;swimlaneHead=0;swimlaneBody=0;fillColor=none;collapsible=0;dropTarget=0;points=[[0,0.5],[1,0.5]];portConstraint=eastwest;top=0;left=0;right=0;bottom=1;" vertex="1" parent="67NaBdKSc4eSCxNxW8BE-17">
          <mxGeometry y="30" width="180" height="30" as="geometry" />
        </mxCell>
        <mxCell id="67NaBdKSc4eSCxNxW8BE-19" value="PK" style="shape=partialRectangle;connectable=0;fillColor=none;top=0;left=0;bottom=0;right=0;fontStyle=1;overflow=hidden;whiteSpace=wrap;html=1;" vertex="1" parent="67NaBdKSc4eSCxNxW8BE-18">
          <mxGeometry width="30" height="30" as="geometry">
            <mxRectangle width="30" height="30" as="alternateBounds" />
          </mxGeometry>
        </mxCell>
        <mxCell id="67NaBdKSc4eSCxNxW8BE-20" value="MaNV" style="shape=partialRectangle;connectable=0;fillColor=none;top=0;left=0;bottom=0;right=0;align=left;spacingLeft=6;fontStyle=5;overflow=hidden;whiteSpace=wrap;html=1;" vertex="1" parent="67NaBdKSc4eSCxNxW8BE-18">
          <mxGeometry x="30" width="150" height="30" as="geometry">
            <mxRectangle width="150" height="30" as="alternateBounds" />
          </mxGeometry>
        </mxCell>
        <mxCell id="67NaBdKSc4eSCxNxW8BE-21" value="" style="shape=tableRow;horizontal=0;startSize=0;swimlaneHead=0;swimlaneBody=0;fillColor=none;collapsible=0;dropTarget=0;points=[[0,0.5],[1,0.5]];portConstraint=eastwest;top=0;left=0;right=0;bottom=0;" vertex="1" parent="67NaBdKSc4eSCxNxW8BE-17">
          <mxGeometry y="60" width="180" height="30" as="geometry" />
        </mxCell>
        <mxCell id="67NaBdKSc4eSCxNxW8BE-22" value="" style="shape=partialRectangle;connectable=0;fillColor=none;top=0;left=0;bottom=0;right=0;editable=1;overflow=hidden;whiteSpace=wrap;html=1;" vertex="1" parent="67NaBdKSc4eSCxNxW8BE-21">
          <mxGeometry width="30" height="30" as="geometry">
            <mxRectangle width="30" height="30" as="alternateBounds" />
          </mxGeometry>
        </mxCell>
        <mxCell id="67NaBdKSc4eSCxNxW8BE-23" value="ID" style="shape=partialRectangle;connectable=0;fillColor=none;top=0;left=0;bottom=0;right=0;align=left;spacingLeft=6;overflow=hidden;whiteSpace=wrap;html=1;" vertex="1" parent="67NaBdKSc4eSCxNxW8BE-21">
          <mxGeometry x="30" width="150" height="30" as="geometry">
            <mxRectangle width="150" height="30" as="alternateBounds" />
          </mxGeometry>
        </mxCell>
        <mxCell id="67NaBdKSc4eSCxNxW8BE-24" value="" style="shape=tableRow;horizontal=0;startSize=0;swimlaneHead=0;swimlaneBody=0;fillColor=none;collapsible=0;dropTarget=0;points=[[0,0.5],[1,0.5]];portConstraint=eastwest;top=0;left=0;right=0;bottom=0;" vertex="1" parent="67NaBdKSc4eSCxNxW8BE-17">
          <mxGeometry y="90" width="180" height="30" as="geometry" />
        </mxCell>
        <mxCell id="67NaBdKSc4eSCxNxW8BE-25" value="" style="shape=partialRectangle;connectable=0;fillColor=none;top=0;left=0;bottom=0;right=0;editable=1;overflow=hidden;whiteSpace=wrap;html=1;" vertex="1" parent="67NaBdKSc4eSCxNxW8BE-24">
          <mxGeometry width="30" height="30" as="geometry">
            <mxRectangle width="30" height="30" as="alternateBounds" />
          </mxGeometry>
        </mxCell>
        <mxCell id="67NaBdKSc4eSCxNxW8BE-26" value="Email" style="shape=partialRectangle;connectable=0;fillColor=none;top=0;left=0;bottom=0;right=0;align=left;spacingLeft=6;overflow=hidden;whiteSpace=wrap;html=1;" vertex="1" parent="67NaBdKSc4eSCxNxW8BE-24">
          <mxGeometry x="30" width="150" height="30" as="geometry">
            <mxRectangle width="150" height="30" as="alternateBounds" />
          </mxGeometry>
        </mxCell>
        <mxCell id="67NaBdKSc4eSCxNxW8BE-27" value="" style="shape=tableRow;horizontal=0;startSize=0;swimlaneHead=0;swimlaneBody=0;fillColor=none;collapsible=0;dropTarget=0;points=[[0,0.5],[1,0.5]];portConstraint=eastwest;top=0;left=0;right=0;bottom=0;" vertex="1" parent="67NaBdKSc4eSCxNxW8BE-17">
          <mxGeometry y="120" width="180" height="30" as="geometry" />
        </mxCell>
        <mxCell id="67NaBdKSc4eSCxNxW8BE-28" value="" style="shape=partialRectangle;connectable=0;fillColor=none;top=0;left=0;bottom=0;right=0;editable=1;overflow=hidden;whiteSpace=wrap;html=1;" vertex="1" parent="67NaBdKSc4eSCxNxW8BE-27">
          <mxGeometry width="30" height="30" as="geometry">
            <mxRectangle width="30" height="30" as="alternateBounds" />
          </mxGeometry>
        </mxCell>
        <mxCell id="67NaBdKSc4eSCxNxW8BE-29" value="TenNV" style="shape=partialRectangle;connectable=0;fillColor=none;top=0;left=0;bottom=0;right=0;align=left;spacingLeft=6;overflow=hidden;whiteSpace=wrap;html=1;" vertex="1" parent="67NaBdKSc4eSCxNxW8BE-27">
          <mxGeometry x="30" width="150" height="30" as="geometry">
            <mxRectangle width="150" height="30" as="alternateBounds" />
          </mxGeometry>
        </mxCell>
        <mxCell id="67NaBdKSc4eSCxNxW8BE-43" value="" style="shape=tableRow;horizontal=0;startSize=0;swimlaneHead=0;swimlaneBody=0;fillColor=none;collapsible=0;dropTarget=0;points=[[0,0.5],[1,0.5]];portConstraint=eastwest;top=0;left=0;right=0;bottom=0;" vertex="1" parent="67NaBdKSc4eSCxNxW8BE-17">
          <mxGeometry y="150" width="180" height="30" as="geometry" />
        </mxCell>
        <mxCell id="67NaBdKSc4eSCxNxW8BE-44" value="" style="shape=partialRectangle;connectable=0;fillColor=none;top=0;left=0;bottom=0;right=0;editable=1;overflow=hidden;whiteSpace=wrap;html=1;" vertex="1" parent="67NaBdKSc4eSCxNxW8BE-43">
          <mxGeometry width="30" height="30" as="geometry">
            <mxRectangle width="30" height="30" as="alternateBounds" />
          </mxGeometry>
        </mxCell>
        <mxCell id="67NaBdKSc4eSCxNxW8BE-45" value="DiaChi" style="shape=partialRectangle;connectable=0;fillColor=none;top=0;left=0;bottom=0;right=0;align=left;spacingLeft=6;overflow=hidden;whiteSpace=wrap;html=1;" vertex="1" parent="67NaBdKSc4eSCxNxW8BE-43">
          <mxGeometry x="30" width="150" height="30" as="geometry">
            <mxRectangle width="150" height="30" as="alternateBounds" />
          </mxGeometry>
        </mxCell>
        <mxCell id="67NaBdKSc4eSCxNxW8BE-46" value="" style="shape=tableRow;horizontal=0;startSize=0;swimlaneHead=0;swimlaneBody=0;fillColor=none;collapsible=0;dropTarget=0;points=[[0,0.5],[1,0.5]];portConstraint=eastwest;top=0;left=0;right=0;bottom=0;" vertex="1" parent="67NaBdKSc4eSCxNxW8BE-17">
          <mxGeometry y="180" width="180" height="30" as="geometry" />
        </mxCell>
        <mxCell id="67NaBdKSc4eSCxNxW8BE-47" value="" style="shape=partialRectangle;connectable=0;fillColor=none;top=0;left=0;bottom=0;right=0;editable=1;overflow=hidden;whiteSpace=wrap;html=1;" vertex="1" parent="67NaBdKSc4eSCxNxW8BE-46">
          <mxGeometry width="30" height="30" as="geometry">
            <mxRectangle width="30" height="30" as="alternateBounds" />
          </mxGeometry>
        </mxCell>
        <mxCell id="67NaBdKSc4eSCxNxW8BE-48" value="VaiTro" style="shape=partialRectangle;connectable=0;fillColor=none;top=0;left=0;bottom=0;right=0;align=left;spacingLeft=6;overflow=hidden;whiteSpace=wrap;html=1;" vertex="1" parent="67NaBdKSc4eSCxNxW8BE-46">
          <mxGeometry x="30" width="150" height="30" as="geometry">
            <mxRectangle width="150" height="30" as="alternateBounds" />
          </mxGeometry>
        </mxCell>
        <mxCell id="67NaBdKSc4eSCxNxW8BE-49" value="" style="shape=tableRow;horizontal=0;startSize=0;swimlaneHead=0;swimlaneBody=0;fillColor=none;collapsible=0;dropTarget=0;points=[[0,0.5],[1,0.5]];portConstraint=eastwest;top=0;left=0;right=0;bottom=0;" vertex="1" parent="67NaBdKSc4eSCxNxW8BE-17">
          <mxGeometry y="210" width="180" height="30" as="geometry" />
        </mxCell>
        <mxCell id="67NaBdKSc4eSCxNxW8BE-50" value="" style="shape=partialRectangle;connectable=0;fillColor=none;top=0;left=0;bottom=0;right=0;editable=1;overflow=hidden;whiteSpace=wrap;html=1;" vertex="1" parent="67NaBdKSc4eSCxNxW8BE-49">
          <mxGeometry width="30" height="30" as="geometry">
            <mxRectangle width="30" height="30" as="alternateBounds" />
          </mxGeometry>
        </mxCell>
        <mxCell id="67NaBdKSc4eSCxNxW8BE-51" value="TrangThai" style="shape=partialRectangle;connectable=0;fillColor=none;top=0;left=0;bottom=0;right=0;align=left;spacingLeft=6;overflow=hidden;whiteSpace=wrap;html=1;" vertex="1" parent="67NaBdKSc4eSCxNxW8BE-49">
          <mxGeometry x="30" width="150" height="30" as="geometry">
            <mxRectangle width="150" height="30" as="alternateBounds" />
          </mxGeometry>
        </mxCell>
        <mxCell id="67NaBdKSc4eSCxNxW8BE-52" value="" style="shape=tableRow;horizontal=0;startSize=0;swimlaneHead=0;swimlaneBody=0;fillColor=none;collapsible=0;dropTarget=0;points=[[0,0.5],[1,0.5]];portConstraint=eastwest;top=0;left=0;right=0;bottom=0;" vertex="1" parent="67NaBdKSc4eSCxNxW8BE-17">
          <mxGeometry y="240" width="180" height="30" as="geometry" />
        </mxCell>
        <mxCell id="67NaBdKSc4eSCxNxW8BE-53" value="" style="shape=partialRectangle;connectable=0;fillColor=none;top=0;left=0;bottom=0;right=0;editable=1;overflow=hidden;whiteSpace=wrap;html=1;" vertex="1" parent="67NaBdKSc4eSCxNxW8BE-52">
          <mxGeometry width="30" height="30" as="geometry">
            <mxRectangle width="30" height="30" as="alternateBounds" />
          </mxGeometry>
        </mxCell>
        <mxCell id="67NaBdKSc4eSCxNxW8BE-54" value="MatKhau" style="shape=partialRectangle;connectable=0;fillColor=none;top=0;left=0;bottom=0;right=0;align=left;spacingLeft=6;overflow=hidden;whiteSpace=wrap;html=1;" vertex="1" parent="67NaBdKSc4eSCxNxW8BE-52">
          <mxGeometry x="30" width="150" height="30" as="geometry">
            <mxRectangle width="150" height="30" as="alternateBounds" />
          </mxGeometry>
        </mxCell>
        <mxCell id="67NaBdKSc4eSCxNxW8BE-30" value="SanPham" style="shape=table;startSize=30;container=1;collapsible=1;childLayout=tableLayout;fixedRows=1;rowLines=0;fontStyle=1;align=center;resizeLast=1;html=1;" vertex="1" parent="1">
          <mxGeometry x="280" y="340" width="180" height="330" as="geometry" />
        </mxCell>
        <mxCell id="67NaBdKSc4eSCxNxW8BE-31" value="" style="shape=tableRow;horizontal=0;startSize=0;swimlaneHead=0;swimlaneBody=0;fillColor=none;collapsible=0;dropTarget=0;points=[[0,0.5],[1,0.5]];portConstraint=eastwest;top=0;left=0;right=0;bottom=1;" vertex="1" parent="67NaBdKSc4eSCxNxW8BE-30">
          <mxGeometry y="30" width="180" height="30" as="geometry" />
        </mxCell>
        <mxCell id="67NaBdKSc4eSCxNxW8BE-32" value="PK" style="shape=partialRectangle;connectable=0;fillColor=none;top=0;left=0;bottom=0;right=0;fontStyle=1;overflow=hidden;whiteSpace=wrap;html=1;" vertex="1" parent="67NaBdKSc4eSCxNxW8BE-31">
          <mxGeometry width="30" height="30" as="geometry">
            <mxRectangle width="30" height="30" as="alternateBounds" />
          </mxGeometry>
        </mxCell>
        <mxCell id="67NaBdKSc4eSCxNxW8BE-33" value="MaHang" style="shape=partialRectangle;connectable=0;fillColor=none;top=0;left=0;bottom=0;right=0;align=left;spacingLeft=6;fontStyle=5;overflow=hidden;whiteSpace=wrap;html=1;" vertex="1" parent="67NaBdKSc4eSCxNxW8BE-31">
          <mxGeometry x="30" width="150" height="30" as="geometry">
            <mxRectangle width="150" height="30" as="alternateBounds" />
          </mxGeometry>
        </mxCell>
        <mxCell id="67NaBdKSc4eSCxNxW8BE-34" value="" style="shape=tableRow;horizontal=0;startSize=0;swimlaneHead=0;swimlaneBody=0;fillColor=none;collapsible=0;dropTarget=0;points=[[0,0.5],[1,0.5]];portConstraint=eastwest;top=0;left=0;right=0;bottom=0;" vertex="1" parent="67NaBdKSc4eSCxNxW8BE-30">
          <mxGeometry y="60" width="180" height="30" as="geometry" />
        </mxCell>
        <mxCell id="67NaBdKSc4eSCxNxW8BE-35" value="PK" style="shape=partialRectangle;connectable=0;fillColor=none;top=0;left=0;bottom=0;right=0;editable=1;overflow=hidden;whiteSpace=wrap;html=1;" vertex="1" parent="67NaBdKSc4eSCxNxW8BE-34">
          <mxGeometry width="30" height="30" as="geometry">
            <mxRectangle width="30" height="30" as="alternateBounds" />
          </mxGeometry>
        </mxCell>
        <mxCell id="67NaBdKSc4eSCxNxW8BE-36" value="TenHang" style="shape=partialRectangle;connectable=0;fillColor=none;top=0;left=0;bottom=0;right=0;align=left;spacingLeft=6;overflow=hidden;whiteSpace=wrap;html=1;" vertex="1" parent="67NaBdKSc4eSCxNxW8BE-34">
          <mxGeometry x="30" width="150" height="30" as="geometry">
            <mxRectangle width="150" height="30" as="alternateBounds" />
          </mxGeometry>
        </mxCell>
        <mxCell id="67NaBdKSc4eSCxNxW8BE-37" value="" style="shape=tableRow;horizontal=0;startSize=0;swimlaneHead=0;swimlaneBody=0;fillColor=none;collapsible=0;dropTarget=0;points=[[0,0.5],[1,0.5]];portConstraint=eastwest;top=0;left=0;right=0;bottom=0;" vertex="1" parent="67NaBdKSc4eSCxNxW8BE-30">
          <mxGeometry y="90" width="180" height="30" as="geometry" />
        </mxCell>
        <mxCell id="67NaBdKSc4eSCxNxW8BE-38" value="" style="shape=partialRectangle;connectable=0;fillColor=none;top=0;left=0;bottom=0;right=0;editable=1;overflow=hidden;whiteSpace=wrap;html=1;" vertex="1" parent="67NaBdKSc4eSCxNxW8BE-37">
          <mxGeometry width="30" height="30" as="geometry">
            <mxRectangle width="30" height="30" as="alternateBounds" />
          </mxGeometry>
        </mxCell>
        <mxCell id="67NaBdKSc4eSCxNxW8BE-39" value="SoLuong" style="shape=partialRectangle;connectable=0;fillColor=none;top=0;left=0;bottom=0;right=0;align=left;spacingLeft=6;overflow=hidden;whiteSpace=wrap;html=1;" vertex="1" parent="67NaBdKSc4eSCxNxW8BE-37">
          <mxGeometry x="30" width="150" height="30" as="geometry">
            <mxRectangle width="150" height="30" as="alternateBounds" />
          </mxGeometry>
        </mxCell>
        <mxCell id="67NaBdKSc4eSCxNxW8BE-40" value="" style="shape=tableRow;horizontal=0;startSize=0;swimlaneHead=0;swimlaneBody=0;fillColor=none;collapsible=0;dropTarget=0;points=[[0,0.5],[1,0.5]];portConstraint=eastwest;top=0;left=0;right=0;bottom=0;" vertex="1" parent="67NaBdKSc4eSCxNxW8BE-30">
          <mxGeometry y="120" width="180" height="30" as="geometry" />
        </mxCell>
        <mxCell id="67NaBdKSc4eSCxNxW8BE-41" value="" style="shape=partialRectangle;connectable=0;fillColor=none;top=0;left=0;bottom=0;right=0;editable=1;overflow=hidden;whiteSpace=wrap;html=1;" vertex="1" parent="67NaBdKSc4eSCxNxW8BE-40">
          <mxGeometry width="30" height="30" as="geometry">
            <mxRectangle width="30" height="30" as="alternateBounds" />
          </mxGeometry>
        </mxCell>
        <mxCell id="67NaBdKSc4eSCxNxW8BE-42" value="DonGiaBan" style="shape=partialRectangle;connectable=0;fillColor=none;top=0;left=0;bottom=0;right=0;align=left;spacingLeft=6;overflow=hidden;whiteSpace=wrap;html=1;" vertex="1" parent="67NaBdKSc4eSCxNxW8BE-40">
          <mxGeometry x="30" width="150" height="30" as="geometry">
            <mxRectangle width="150" height="30" as="alternateBounds" />
          </mxGeometry>
        </mxCell>
        <mxCell id="67NaBdKSc4eSCxNxW8BE-55" value="" style="shape=tableRow;horizontal=0;startSize=0;swimlaneHead=0;swimlaneBody=0;fillColor=none;collapsible=0;dropTarget=0;points=[[0,0.5],[1,0.5]];portConstraint=eastwest;top=0;left=0;right=0;bottom=0;" vertex="1" parent="67NaBdKSc4eSCxNxW8BE-30">
          <mxGeometry y="150" width="180" height="30" as="geometry" />
        </mxCell>
        <mxCell id="67NaBdKSc4eSCxNxW8BE-56" value="" style="shape=partialRectangle;connectable=0;fillColor=none;top=0;left=0;bottom=0;right=0;editable=1;overflow=hidden;whiteSpace=wrap;html=1;" vertex="1" parent="67NaBdKSc4eSCxNxW8BE-55">
          <mxGeometry width="30" height="30" as="geometry">
            <mxRectangle width="30" height="30" as="alternateBounds" />
          </mxGeometry>
        </mxCell>
        <mxCell id="67NaBdKSc4eSCxNxW8BE-57" value="DonGiaNhap" style="shape=partialRectangle;connectable=0;fillColor=none;top=0;left=0;bottom=0;right=0;align=left;spacingLeft=6;overflow=hidden;whiteSpace=wrap;html=1;" vertex="1" parent="67NaBdKSc4eSCxNxW8BE-55">
          <mxGeometry x="30" width="150" height="30" as="geometry">
            <mxRectangle width="150" height="30" as="alternateBounds" />
          </mxGeometry>
        </mxCell>
        <mxCell id="67NaBdKSc4eSCxNxW8BE-58" value="" style="shape=tableRow;horizontal=0;startSize=0;swimlaneHead=0;swimlaneBody=0;fillColor=none;collapsible=0;dropTarget=0;points=[[0,0.5],[1,0.5]];portConstraint=eastwest;top=0;left=0;right=0;bottom=0;" vertex="1" parent="67NaBdKSc4eSCxNxW8BE-30">
          <mxGeometry y="180" width="180" height="30" as="geometry" />
        </mxCell>
        <mxCell id="67NaBdKSc4eSCxNxW8BE-59" value="" style="shape=partialRectangle;connectable=0;fillColor=none;top=0;left=0;bottom=0;right=0;editable=1;overflow=hidden;whiteSpace=wrap;html=1;" vertex="1" parent="67NaBdKSc4eSCxNxW8BE-58">
          <mxGeometry width="30" height="30" as="geometry">
            <mxRectangle width="30" height="30" as="alternateBounds" />
          </mxGeometry>
        </mxCell>
        <mxCell id="67NaBdKSc4eSCxNxW8BE-60" value="HinhAnh" style="shape=partialRectangle;connectable=0;fillColor=none;top=0;left=0;bottom=0;right=0;align=left;spacingLeft=6;overflow=hidden;whiteSpace=wrap;html=1;" vertex="1" parent="67NaBdKSc4eSCxNxW8BE-58">
          <mxGeometry x="30" width="150" height="30" as="geometry">
            <mxRectangle width="150" height="30" as="alternateBounds" />
          </mxGeometry>
        </mxCell>
        <mxCell id="67NaBdKSc4eSCxNxW8BE-61" value="" style="shape=tableRow;horizontal=0;startSize=0;swimlaneHead=0;swimlaneBody=0;fillColor=none;collapsible=0;dropTarget=0;points=[[0,0.5],[1,0.5]];portConstraint=eastwest;top=0;left=0;right=0;bottom=0;" vertex="1" parent="67NaBdKSc4eSCxNxW8BE-30">
          <mxGeometry y="210" width="180" height="30" as="geometry" />
        </mxCell>
        <mxCell id="67NaBdKSc4eSCxNxW8BE-62" value="" style="shape=partialRectangle;connectable=0;fillColor=none;top=0;left=0;bottom=0;right=0;editable=1;overflow=hidden;whiteSpace=wrap;html=1;" vertex="1" parent="67NaBdKSc4eSCxNxW8BE-61">
          <mxGeometry width="30" height="30" as="geometry">
            <mxRectangle width="30" height="30" as="alternateBounds" />
          </mxGeometry>
        </mxCell>
        <mxCell id="67NaBdKSc4eSCxNxW8BE-63" value="GhiChu" style="shape=partialRectangle;connectable=0;fillColor=none;top=0;left=0;bottom=0;right=0;align=left;spacingLeft=6;overflow=hidden;whiteSpace=wrap;html=1;" vertex="1" parent="67NaBdKSc4eSCxNxW8BE-61">
          <mxGeometry x="30" width="150" height="30" as="geometry">
            <mxRectangle width="150" height="30" as="alternateBounds" />
          </mxGeometry>
        </mxCell>
        <mxCell id="67NaBdKSc4eSCxNxW8BE-64" value="" style="shape=tableRow;horizontal=0;startSize=0;swimlaneHead=0;swimlaneBody=0;fillColor=none;collapsible=0;dropTarget=0;points=[[0,0.5],[1,0.5]];portConstraint=eastwest;top=0;left=0;right=0;bottom=0;" vertex="1" parent="67NaBdKSc4eSCxNxW8BE-30">
          <mxGeometry y="240" width="180" height="30" as="geometry" />
        </mxCell>
        <mxCell id="67NaBdKSc4eSCxNxW8BE-65" value="FK" style="shape=partialRectangle;connectable=0;fillColor=none;top=0;left=0;bottom=0;right=0;editable=1;overflow=hidden;whiteSpace=wrap;html=1;" vertex="1" parent="67NaBdKSc4eSCxNxW8BE-64">
          <mxGeometry width="30" height="30" as="geometry">
            <mxRectangle width="30" height="30" as="alternateBounds" />
          </mxGeometry>
        </mxCell>
        <mxCell id="67NaBdKSc4eSCxNxW8BE-66" value="MaNV" style="shape=partialRectangle;connectable=0;fillColor=none;top=0;left=0;bottom=0;right=0;align=left;spacingLeft=6;overflow=hidden;whiteSpace=wrap;html=1;" vertex="1" parent="67NaBdKSc4eSCxNxW8BE-64">
          <mxGeometry x="30" width="150" height="30" as="geometry">
            <mxRectangle width="150" height="30" as="alternateBounds" />
          </mxGeometry>
        </mxCell>
        <mxCell id="67NaBdKSc4eSCxNxW8BE-67" value="" style="shape=tableRow;horizontal=0;startSize=0;swimlaneHead=0;swimlaneBody=0;fillColor=none;collapsible=0;dropTarget=0;points=[[0,0.5],[1,0.5]];portConstraint=eastwest;top=0;left=0;right=0;bottom=0;" vertex="1" parent="67NaBdKSc4eSCxNxW8BE-30">
          <mxGeometry y="270" width="180" height="30" as="geometry" />
        </mxCell>
        <mxCell id="67NaBdKSc4eSCxNxW8BE-68" value="" style="shape=partialRectangle;connectable=0;fillColor=none;top=0;left=0;bottom=0;right=0;editable=1;overflow=hidden;whiteSpace=wrap;html=1;" vertex="1" parent="67NaBdKSc4eSCxNxW8BE-67">
          <mxGeometry width="30" height="30" as="geometry">
            <mxRectangle width="30" height="30" as="alternateBounds" />
          </mxGeometry>
        </mxCell>
        <mxCell id="67NaBdKSc4eSCxNxW8BE-69" value="GhiChu" style="shape=partialRectangle;connectable=0;fillColor=none;top=0;left=0;bottom=0;right=0;align=left;spacingLeft=6;overflow=hidden;whiteSpace=wrap;html=1;" vertex="1" parent="67NaBdKSc4eSCxNxW8BE-67">
          <mxGeometry x="30" width="150" height="30" as="geometry">
            <mxRectangle width="150" height="30" as="alternateBounds" />
          </mxGeometry>
        </mxCell>
        <mxCell id="67NaBdKSc4eSCxNxW8BE-70" value="" style="shape=tableRow;horizontal=0;startSize=0;swimlaneHead=0;swimlaneBody=0;fillColor=none;collapsible=0;dropTarget=0;points=[[0,0.5],[1,0.5]];portConstraint=eastwest;top=0;left=0;right=0;bottom=0;" vertex="1" parent="67NaBdKSc4eSCxNxW8BE-30">
          <mxGeometry y="300" width="180" height="30" as="geometry" />
        </mxCell>
        <mxCell id="67NaBdKSc4eSCxNxW8BE-71" value="" style="shape=partialRectangle;connectable=0;fillColor=none;top=0;left=0;bottom=0;right=0;editable=1;overflow=hidden;whiteSpace=wrap;html=1;" vertex="1" parent="67NaBdKSc4eSCxNxW8BE-70">
          <mxGeometry width="30" height="30" as="geometry">
            <mxRectangle width="30" height="30" as="alternateBounds" />
          </mxGeometry>
        </mxCell>
        <mxCell id="67NaBdKSc4eSCxNxW8BE-72" value="TrangThai" style="shape=partialRectangle;connectable=0;fillColor=none;top=0;left=0;bottom=0;right=0;align=left;spacingLeft=6;overflow=hidden;whiteSpace=wrap;html=1;" vertex="1" parent="67NaBdKSc4eSCxNxW8BE-70">
          <mxGeometry x="30" width="150" height="30" as="geometry">
            <mxRectangle width="150" height="30" as="alternateBounds" />
          </mxGeometry>
        </mxCell>
        <mxCell id="67NaBdKSc4eSCxNxW8BE-73" value="KhachHang" style="shape=table;startSize=30;container=1;collapsible=1;childLayout=tableLayout;fixedRows=1;rowLines=0;fontStyle=1;align=center;resizeLast=1;html=1;" vertex="1" parent="1">
          <mxGeometry x="550" y="340" width="180" height="210" as="geometry" />
        </mxCell>
        <mxCell id="67NaBdKSc4eSCxNxW8BE-74" value="" style="shape=tableRow;horizontal=0;startSize=0;swimlaneHead=0;swimlaneBody=0;fillColor=none;collapsible=0;dropTarget=0;points=[[0,0.5],[1,0.5]];portConstraint=eastwest;top=0;left=0;right=0;bottom=1;" vertex="1" parent="67NaBdKSc4eSCxNxW8BE-73">
          <mxGeometry y="30" width="180" height="30" as="geometry" />
        </mxCell>
        <mxCell id="67NaBdKSc4eSCxNxW8BE-75" value="PK" style="shape=partialRectangle;connectable=0;fillColor=none;top=0;left=0;bottom=0;right=0;fontStyle=1;overflow=hidden;whiteSpace=wrap;html=1;" vertex="1" parent="67NaBdKSc4eSCxNxW8BE-74">
          <mxGeometry width="30" height="30" as="geometry">
            <mxRectangle width="30" height="30" as="alternateBounds" />
          </mxGeometry>
        </mxCell>
        <mxCell id="67NaBdKSc4eSCxNxW8BE-76" value="SoDienThoai" style="shape=partialRectangle;connectable=0;fillColor=none;top=0;left=0;bottom=0;right=0;align=left;spacingLeft=6;fontStyle=5;overflow=hidden;whiteSpace=wrap;html=1;" vertex="1" parent="67NaBdKSc4eSCxNxW8BE-74">
          <mxGeometry x="30" width="150" height="30" as="geometry">
            <mxRectangle width="150" height="30" as="alternateBounds" />
          </mxGeometry>
        </mxCell>
        <mxCell id="67NaBdKSc4eSCxNxW8BE-77" value="" style="shape=tableRow;horizontal=0;startSize=0;swimlaneHead=0;swimlaneBody=0;fillColor=none;collapsible=0;dropTarget=0;points=[[0,0.5],[1,0.5]];portConstraint=eastwest;top=0;left=0;right=0;bottom=0;" vertex="1" parent="67NaBdKSc4eSCxNxW8BE-73">
          <mxGeometry y="60" width="180" height="30" as="geometry" />
        </mxCell>
        <mxCell id="67NaBdKSc4eSCxNxW8BE-78" value="" style="shape=partialRectangle;connectable=0;fillColor=none;top=0;left=0;bottom=0;right=0;editable=1;overflow=hidden;whiteSpace=wrap;html=1;" vertex="1" parent="67NaBdKSc4eSCxNxW8BE-77">
          <mxGeometry width="30" height="30" as="geometry">
            <mxRectangle width="30" height="30" as="alternateBounds" />
          </mxGeometry>
        </mxCell>
        <mxCell id="67NaBdKSc4eSCxNxW8BE-79" value="TenKhach" style="shape=partialRectangle;connectable=0;fillColor=none;top=0;left=0;bottom=0;right=0;align=left;spacingLeft=6;overflow=hidden;whiteSpace=wrap;html=1;" vertex="1" parent="67NaBdKSc4eSCxNxW8BE-77">
          <mxGeometry x="30" width="150" height="30" as="geometry">
            <mxRectangle width="150" height="30" as="alternateBounds" />
          </mxGeometry>
        </mxCell>
        <mxCell id="67NaBdKSc4eSCxNxW8BE-80" value="" style="shape=tableRow;horizontal=0;startSize=0;swimlaneHead=0;swimlaneBody=0;fillColor=none;collapsible=0;dropTarget=0;points=[[0,0.5],[1,0.5]];portConstraint=eastwest;top=0;left=0;right=0;bottom=0;" vertex="1" parent="67NaBdKSc4eSCxNxW8BE-73">
          <mxGeometry y="90" width="180" height="30" as="geometry" />
        </mxCell>
        <mxCell id="67NaBdKSc4eSCxNxW8BE-81" value="" style="shape=partialRectangle;connectable=0;fillColor=none;top=0;left=0;bottom=0;right=0;editable=1;overflow=hidden;whiteSpace=wrap;html=1;" vertex="1" parent="67NaBdKSc4eSCxNxW8BE-80">
          <mxGeometry width="30" height="30" as="geometry">
            <mxRectangle width="30" height="30" as="alternateBounds" />
          </mxGeometry>
        </mxCell>
        <mxCell id="67NaBdKSc4eSCxNxW8BE-82" value="DiaChi" style="shape=partialRectangle;connectable=0;fillColor=none;top=0;left=0;bottom=0;right=0;align=left;spacingLeft=6;overflow=hidden;whiteSpace=wrap;html=1;" vertex="1" parent="67NaBdKSc4eSCxNxW8BE-80">
          <mxGeometry x="30" width="150" height="30" as="geometry">
            <mxRectangle width="150" height="30" as="alternateBounds" />
          </mxGeometry>
        </mxCell>
        <mxCell id="67NaBdKSc4eSCxNxW8BE-83" value="" style="shape=tableRow;horizontal=0;startSize=0;swimlaneHead=0;swimlaneBody=0;fillColor=none;collapsible=0;dropTarget=0;points=[[0,0.5],[1,0.5]];portConstraint=eastwest;top=0;left=0;right=0;bottom=0;" vertex="1" parent="67NaBdKSc4eSCxNxW8BE-73">
          <mxGeometry y="120" width="180" height="30" as="geometry" />
        </mxCell>
        <mxCell id="67NaBdKSc4eSCxNxW8BE-84" value="" style="shape=partialRectangle;connectable=0;fillColor=none;top=0;left=0;bottom=0;right=0;editable=1;overflow=hidden;whiteSpace=wrap;html=1;" vertex="1" parent="67NaBdKSc4eSCxNxW8BE-83">
          <mxGeometry width="30" height="30" as="geometry">
            <mxRectangle width="30" height="30" as="alternateBounds" />
          </mxGeometry>
        </mxCell>
        <mxCell id="67NaBdKSc4eSCxNxW8BE-85" value="GioiTinh" style="shape=partialRectangle;connectable=0;fillColor=none;top=0;left=0;bottom=0;right=0;align=left;spacingLeft=6;overflow=hidden;whiteSpace=wrap;html=1;" vertex="1" parent="67NaBdKSc4eSCxNxW8BE-83">
          <mxGeometry x="30" width="150" height="30" as="geometry">
            <mxRectangle width="150" height="30" as="alternateBounds" />
          </mxGeometry>
        </mxCell>
        <mxCell id="67NaBdKSc4eSCxNxW8BE-86" value="" style="shape=tableRow;horizontal=0;startSize=0;swimlaneHead=0;swimlaneBody=0;fillColor=none;collapsible=0;dropTarget=0;points=[[0,0.5],[1,0.5]];portConstraint=eastwest;top=0;left=0;right=0;bottom=0;" vertex="1" parent="67NaBdKSc4eSCxNxW8BE-73">
          <mxGeometry y="150" width="180" height="30" as="geometry" />
        </mxCell>
        <mxCell id="67NaBdKSc4eSCxNxW8BE-87" value="FK" style="shape=partialRectangle;connectable=0;fillColor=none;top=0;left=0;bottom=0;right=0;editable=1;overflow=hidden;whiteSpace=wrap;html=1;" vertex="1" parent="67NaBdKSc4eSCxNxW8BE-86">
          <mxGeometry width="30" height="30" as="geometry">
            <mxRectangle width="30" height="30" as="alternateBounds" />
          </mxGeometry>
        </mxCell>
        <mxCell id="67NaBdKSc4eSCxNxW8BE-88" value="MaNV" style="shape=partialRectangle;connectable=0;fillColor=none;top=0;left=0;bottom=0;right=0;align=left;spacingLeft=6;overflow=hidden;whiteSpace=wrap;html=1;" vertex="1" parent="67NaBdKSc4eSCxNxW8BE-86">
          <mxGeometry x="30" width="150" height="30" as="geometry">
            <mxRectangle width="150" height="30" as="alternateBounds" />
          </mxGeometry>
        </mxCell>
        <mxCell id="67NaBdKSc4eSCxNxW8BE-89" value="" style="shape=tableRow;horizontal=0;startSize=0;swimlaneHead=0;swimlaneBody=0;fillColor=none;collapsible=0;dropTarget=0;points=[[0,0.5],[1,0.5]];portConstraint=eastwest;top=0;left=0;right=0;bottom=0;" vertex="1" parent="67NaBdKSc4eSCxNxW8BE-73">
          <mxGeometry y="180" width="180" height="30" as="geometry" />
        </mxCell>
        <mxCell id="67NaBdKSc4eSCxNxW8BE-90" value="" style="shape=partialRectangle;connectable=0;fillColor=none;top=0;left=0;bottom=0;right=0;editable=1;overflow=hidden;whiteSpace=wrap;html=1;" vertex="1" parent="67NaBdKSc4eSCxNxW8BE-89">
          <mxGeometry width="30" height="30" as="geometry">
            <mxRectangle width="30" height="30" as="alternateBounds" />
          </mxGeometry>
        </mxCell>
        <mxCell id="67NaBdKSc4eSCxNxW8BE-91" value="TrangThai" style="shape=partialRectangle;connectable=0;fillColor=none;top=0;left=0;bottom=0;right=0;align=left;spacingLeft=6;overflow=hidden;whiteSpace=wrap;html=1;" vertex="1" parent="67NaBdKSc4eSCxNxW8BE-89">
          <mxGeometry x="30" width="150" height="30" as="geometry">
            <mxRectangle width="150" height="30" as="alternateBounds" />
          </mxGeometry>
        </mxCell>
      </root>
    </mxGraphModel>
  </diagram>
</mxfile>
